<?xml version="1.0" ?><svg id="Layer_1" style="enable-background:new 0 0 50 50;" version="1.1" viewBox="0 0 50 50" xml:space="preserve" xmlns="http://www.w3.org/2000/svg" xmlns:xlink="http://www.w3.org/1999/xlink"><style type="text/css">
	.st0{fill:#B7C5FD;}
	.st1{fill:#9AADFD;}
	.st2{fill:#FFFFFF;}
	.st3{fill:#3955D1;}
	.st4{fill:#4466FB;}
	.st5{fill:#AABAFD;}
	.st6{fill:#798FFE;}
	.st7{fill:#6BB5FB;}
	.st8{enable-background:new    ;}
	.st9{fill:#1B2A4F;}
	.st10{fill:url(#);}
	.st11{fill:#384E85;}
	.st12{fill:#2E4277;}
	.st13{fill:#D9DDF6;}
	.st14{fill:#535D88;}
	.st15{fill:#2B3C67;}
	.st16{fill:#8FCCFF;}
	.st17{fill:#8CA1FD;}
	.st18{opacity:0.3;}
	.st19{opacity:0.3;fill:#4466FB;}
	.st20{opacity:0.2;}
</style><g><g><g class="st8"><g><path class="st0" d="M19.3885,23.36517l-4.32893,2.51624c-0.92785,0.53766-2.20901,0.46392-3.62228-0.35025l-2.30733-1.3334      c-2.80812-1.62218-5.08779-5.57015-5.07858-8.7961c0.00615-1.60375,0.57453-2.73437,1.48702-3.26588l4.33199-2.51624      c-0.91555,0.53151-1.48392,1.66213-1.487,3.26589c-0.00923,3.22595,2.26739,7.1739,5.07856,8.79608l2.30425,1.33033      C17.17949,23.8291,18.46372,23.90283,19.3885,23.36517z"/></g><g><path class="st0" d="M23.9294,21.85972c-0.00615,2.56541-0.91555,4.37193-2.37799,5.2199l-4.33199,2.51932      c1.46549-0.85104,2.37184-2.65756,2.38106-5.22297c0.01536-5.16152-3.62845-11.46904-8.1202-14.06209L9.17298,8.98049      C6.91172,7.67475,4.86248,7.558,3.37854,8.41825L7.71054,5.902c1.48087-0.86333,3.53319-0.7435,5.79442,0.56224l2.30425,1.33338      C20.30405,10.39068,23.94476,16.6982,23.9294,21.85972z"/></g><g><path class="st1" d="M11.47985,10.31294c4.49202,2.59347,8.13454,8.90258,8.11991,14.06426      c-0.01463,5.16167-3.68096,7.25101-8.17299,4.65754l-2.30682-1.33184c-4.49201-2.59347-8.13454-8.90258-8.11991-14.06425      C1.01468,8.47696,4.68101,6.38763,9.17303,8.9811L11.47985,10.31294z M11.43671,25.52974      c2.80898,1.62177,5.10168,0.313,5.11083-2.91474c0.00915-3.22774-2.26865-7.17305-5.07763-8.79481l-2.30682-1.33185      c-2.80898-1.62177-5.10167-0.31523-5.11082,2.91251c-0.00915,3.22774,2.26863,7.17528,5.07762,8.79705L11.43671,25.52974"/></g></g></g><g><g class="st8"><g><path class="st4" d="M15.56303,26.1001l0.0123-5.0079c0.00308-1.05688,0.69741-2.11377,2.08303-2.91872      c2.79276-1.62218,7.34597-1.62218,10.15714,0l7.39953,4.27031c1.41329,0.81723,2.11684,1.88947,2.11377,2.96174      l-0.01228,5.00175c0-1.07224-0.70665-2.14141-2.11684-2.95559l-7.39645-4.27031c-2.8112-1.62218-7.36746-1.62218-10.15714,0      C16.26046,23.98633,15.56611,25.04321,15.56303,26.1001z"/><path class="st4" d="M41.63008,25.4178l-0.01228,5.0079c-0.00615,1.69286-1.11526,3.38264-3.3335,4.67303      c-4.46102,2.59305-11.74861,2.59305-16.24037,0l-7.39645-4.27339c-2.26124-1.30267-3.38878-3.02011-3.38572-4.73446      l0.01538-5.00177c0,1.71437,1.12754,3.42566,3.3857,4.72833l7.39645,4.27031c4.49175,2.59305,11.77627,2.59305,16.24037,0      C40.51482,28.80045,41.627,27.11066,41.63008,25.4178z"/></g><g><path class="st7" d="M38.24611,20.68179c4.49203,2.59348,4.51579,6.81327,0.05294,9.40679      c-4.46282,2.59351-11.74791,2.59354-16.23995,0.00006l-7.39705-4.27069c-4.49203-2.59347-4.51578-6.81327-0.05296-9.40678      c4.46284-2.59352,11.74793-2.59355,16.23996-0.00008L38.24611,20.68179z M25.09148,28.32643      c2.80899,1.62177,7.36462,1.62175,10.15536-0.00004c2.79073-1.6218,2.77588-4.2606-0.03311-5.88236l-7.39705-4.27069      c-2.81094-1.6229-7.36659-1.62288-10.15732-0.00108s-2.77587,4.26059,0.03507,5.88349L25.09148,28.32643"/></g><g><path class="st1" d="M19.5643,25.13532c0.02118-0.24445,0.03473-0.49573,0.03546-0.75812      c0.0108-3.81433-1.97815-8.25122-4.82855-11.35626c-0.02606,0.07898-0.04144,0.16022-0.0705,0.23853      c-0.0639,0.1723-0.58917,1.23706-1.11554,2.32843c1.74921,1.93817,2.96906,4.66962,2.96234,7.0271      c-0.00055,0.18811-0.01099,0.3678-0.02673,0.5426c0.31311,0.32141,0.70044,0.62494,1.17365,0.89813L19.5643,25.13532z"/></g></g></g><g><g><path class="st0" d="M9.17298,8.98049l2.30731,1.33338c4.10042,2.36715,7.49255,7.82934,8.04107,12.6898h4.33786     c0.04373-0.36306,0.06923-0.74307,0.07019-1.14395c0.01536-5.16152-3.62535-11.46904-8.12018-14.06209l-2.30425-1.33338     C11.24373,5.1585,9.19141,5.03867,7.71054,5.902L3.37854,8.41824C4.86248,7.55799,6.91173,7.67474,9.17298,8.98049z"/></g></g><g><g class="st8"><g><path class="st0" d="M44.45905,37.86677l-4.32893,2.51624c-0.92785,0.53766-2.20901,0.46392-3.62228-0.35025l-2.30733-1.3334      c-2.80812-1.62218-5.08779-5.57014-5.07858-8.7961c0.00615-1.60375,0.57453-2.73437,1.48702-3.26588l4.33199-2.51624      c-0.91555,0.53151-1.48392,1.66213-1.487,3.2659c-0.00923,3.22595,2.26738,7.1739,5.07856,8.79608l2.30425,1.33033      C42.25004,38.3307,43.53427,38.40443,44.45905,37.86677z"/></g><g><path class="st0" d="M48.99995,36.36132c-0.00615,2.56541-0.91555,4.37193-2.37798,5.2199l-4.33199,2.51932      c1.46549-0.85104,2.37184-2.65756,2.38106-5.22297c0.01536-5.16152-3.62845-11.46904-8.1202-14.06209l-2.30731-1.33338      c-2.26126-1.30574-4.3105-1.42249-5.79444-0.56224l4.332-2.51624c1.48087-0.86333,3.53319-0.7435,5.79442,0.56224      l2.30425,1.33338C45.3746,24.89228,49.01531,31.1998,48.99995,36.36132z"/></g><g><path class="st1" d="M36.5504,24.81454c4.49202,2.59347,8.13454,8.90258,8.11991,14.06426      c-0.01463,5.16167-3.68096,7.25101-8.17299,4.65754l-2.30682-1.33184c-4.49202-2.59346-8.13454-8.90258-8.11991-14.06425      c0.01463-5.16168,3.68097-7.25101,8.17299-4.65755L36.5504,24.81454z M36.50726,40.03134      c2.80899,1.62177,5.10168,0.313,5.11083-2.91474s-2.26865-7.17305-5.07763-8.79482l-2.30682-1.33184      c-2.80898-1.62177-5.10167-0.31523-5.11082,2.91251c-0.00915,3.22774,2.26863,7.17528,5.07762,8.79705L36.50726,40.03134"/></g></g></g><path class="st4" d="M36.31706,32.24012h-1.27229V31.4028c-4.24632,1.14812-9.46926,0.71481-12.98548-1.31503l-0.23731-0.13703   c-0.02661,0.0862-0.04989,0.16031-0.0658,0.2081c-0.45205,1.35611-0.85854,2.7013-1.27374,4.03773l1.56149,0.90217   c4.49178,2.59304,11.77937,2.59304,16.24039,0c0.20055-0.11669,0.37096-0.24352,0.55322-0.36641   C37.78337,34.09756,36.94777,33.2343,36.31706,32.24012z"/><g><path class="st7" d="M25.09146,28.32639l-2.45135-1.41525c-0.32162,1.34458-0.65815,2.52059-0.81841,3.04044l0.23742,0.13708    c3.51638,2.03023,8.73977,2.46349,12.98565,1.31514v-2.51116c-0.02511-0.14712-0.04163-0.29551-0.06015-0.44385    C32.1785,29.93206,27.81887,29.90107,25.09146,28.32639z"/></g></g></svg>